<svg width="184" height="186" viewBox="0 0 184 186" fill="none" xmlns="http://www.w3.org/2000/svg">
    <defs>
        <linearGradient id="paint0_linear_34_57" x1="92.0058" y1="0.902832" x2="92.0058"
            y2="185.403" gradientUnits="userSpaceOnUse">
            <stop stop-color="#A60F93" />
            <stop offset="0.519909" stop-color="#D91A46" />
            <stop offset="1" stop-color="#FBAA47" />
        </linearGradient>
    </defs>
    <path fill-rule="evenodd" clip-rule="evenodd"
        d="M92.0001 0.902832C67.0993 0.902874 63.972 1.01247 54.1887 1.46018C44.4227 1.9099 37.7565 3.4647 31.9237 5.74597C25.8901 8.10219 20.772 11.2541 15.6731 16.3836C10.5702 21.5111 7.43594 26.6579 5.08521 32.7234C2.81093 38.5909 1.26289 45.2963 0.823322 55.1133C0.385666 64.9533 0.270996 68.0994 0.270996 93.153C0.270996 118.207 0.381844 121.341 0.825233 131.181C1.27436 141.002 2.82049 147.706 5.08712 153.571C7.43212 159.638 10.5664 164.785 15.6673 169.913C20.7644 175.044 25.8825 178.204 31.9122 180.56C37.7489 182.841 44.4169 184.396 54.1811 184.846C63.9662 185.294 67.091 185.403 92.003 185.403C116.919 185.403 120.036 185.294 129.821 184.846C139.587 184.396 146.261 182.841 152.098 180.56C158.129 178.204 163.24 175.044 168.337 169.913C173.439 164.785 176.574 159.638 178.925 153.573C181.18 147.706 182.728 141 183.186 131.183C183.626 121.343 183.741 118.207 183.741 93.153C183.741 68.0994 183.626 64.9552 183.186 55.1152C182.728 45.2944 181.18 38.5909 178.925 32.7253C176.574 26.6579 173.439 21.5111 168.337 16.3836C163.234 11.2521 158.131 8.10027 152.092 5.74597C146.244 3.4647 139.574 1.9099 129.808 1.46018C120.024 1.01247 116.908 0.902874 92.0001 0.902832ZM83.785 17.5271C85.3829 17.5245 87.1019 17.5253 88.9569 17.5261H88.957C89.9374 17.5266 90.9558 17.5271 92.0144 17.5271C116.508 17.5271 119.411 17.6155 129.083 18.0575C138.028 18.4688 142.882 19.9717 146.116 21.2344C150.397 22.9064 153.449 24.9051 156.658 28.1339C159.868 31.3627 161.856 34.4377 163.522 38.7427C164.778 41.9906 166.275 46.8722 166.682 55.8666C167.121 65.5913 167.217 68.5126 167.217 93.1318C167.217 117.751 167.121 120.672 166.682 130.397C166.273 139.391 164.778 144.273 163.522 147.521C161.86 151.826 159.868 154.891 156.658 158.118C153.447 161.347 150.398 163.346 146.116 165.018C142.886 166.286 138.028 167.785 129.083 168.197C119.413 168.639 116.508 168.735 92.0144 168.735C67.5191 168.735 64.616 168.639 54.9455 168.197C46.0013 167.781 41.1469 166.279 37.9113 165.016C33.6303 163.344 30.5725 161.345 27.3617 158.116C24.151 154.888 22.1634 151.82 20.4968 147.513C19.2412 144.265 17.7448 139.384 17.3377 130.389C16.8981 120.665 16.8102 117.743 16.8102 93.1088C16.8102 68.4741 16.8981 65.5683 17.3377 55.8435C17.7467 46.8492 19.2412 41.9676 20.4968 38.7158C22.1595 34.4108 24.151 31.3358 27.3617 28.107C30.5725 24.8782 33.6303 22.8795 37.9113 21.2036C41.145 19.9352 46.0013 18.4361 54.9455 18.0229C63.4081 17.6385 66.6877 17.5232 83.785 17.504V17.5271ZM129.974 43.9108C129.974 37.7973 134.905 32.8446 140.982 32.8446V32.8408C147.06 32.8408 151.991 37.7992 151.991 43.9108C151.991 50.0224 147.06 54.9808 140.982 54.9808C134.905 54.9808 129.974 50.0224 129.974 43.9108ZM92.0135 45.7787C65.9972 45.7792 44.9043 66.9908 44.9043 93.153C44.9043 119.316 65.9978 140.518 92.0144 140.518C118.031 140.518 139.117 119.316 139.117 93.153C139.117 66.9908 118.03 45.7792 92.0135 45.7787ZM92.0135 45.7787C92.0138 45.7787 92.0141 45.7787 92.0144 45.7787H92.0125C92.0128 45.7787 92.0131 45.7787 92.0135 45.7787ZM122.593 93.153C122.593 76.1694 108.901 62.403 92.0144 62.403C75.1255 62.403 61.4358 76.1694 61.4358 93.153C61.4358 110.135 75.1255 123.903 92.0144 123.903C108.901 123.903 122.593 110.135 122.593 93.153Z"
        fill="url(#paint0_linear_34_57)" />
</svg>
