<svg width="128" height="40" viewBox="0 0 128 40" fill="none" xmlns="http://www.w3.org/2000/svg">
    <path
        d="M0.776123 0.30127H8.39429L21.3478 23.733L34.3008 0.30127H41.7541V38.804H35.5387V9.29458L24.1803 29.7285H18.35L6.9916 9.29458V38.804H0.776123V0.30127V0.30127ZM61.802 39.4914C58.9234 39.4914 56.3934 38.8543 54.2118 37.5804C52.0298 36.3061 50.329 34.5409 49.1102 32.2864C47.8906 30.0307 47.2814 27.446 47.2814 24.5305C47.2814 21.5789 47.8769 18.9659 49.0689 16.6928C50.2606 14.4193 51.9152 12.6407 54.0328 11.3571C56.1508 10.0739 58.5847 9.43189 61.3346 9.43189C64.0663 9.43189 66.418 10.0783 68.389 11.3709C70.3595 12.6634 71.8768 14.4739 72.9405 16.8026C74.0033 19.1312 74.5356 21.8624 74.5356 24.9979V26.7032H53.4418C53.8266 29.05 54.7753 30.8971 56.2881 32.2443C57.801 33.5923 59.712 34.2659 62.0224 34.2659C63.8739 34.2659 65.469 33.9908 66.8076 33.4408C68.1455 32.8907 69.4016 32.0567 70.5754 30.9384L73.8753 34.9808C70.5932 37.9883 66.5691 39.4914 61.802 39.4914V39.4914ZM66.3402 16.6511C65.038 15.3221 63.3327 14.657 61.2249 14.657C59.1713 14.657 57.4522 15.3359 56.0682 16.6924C54.6837 18.0493 53.808 19.8737 53.4418 22.1654H68.5676C68.3841 19.8186 67.6416 17.9809 66.3402 16.6511V16.6511ZM82.0715 15.2075H76.351V10.1197H82.0715V1.70396H88.0671V10.1197H96.7574V15.2075H88.0671V28.1059C88.0671 30.2506 88.4336 31.7817 89.1672 32.6983C89.8999 33.6154 91.1564 34.0735 92.9349 34.0735C93.7228 34.0735 94.3923 34.0419 94.9424 33.9775C95.5494 33.9051 96.1546 33.8178 96.7574 33.7158V38.7485C96.0789 38.9503 95.3138 39.1155 94.4612 39.2439C93.5734 39.3745 92.6771 39.4388 91.7797 39.4363C85.3075 39.4363 82.0715 35.8982 82.0715 28.8208V15.2075V15.2075ZM128 38.804H122.115V34.7888C121.07 36.2923 119.74 37.452 118.127 38.2673C116.514 39.0831 114.68 39.4914 112.627 39.4914C110.096 39.4914 107.855 38.8449 105.903 37.5524C103.95 36.2599 102.414 34.4818 101.296 32.2171C100.178 29.9529 99.6182 27.3634 99.6182 24.4483C99.6182 21.5145 100.187 18.9202 101.324 16.6649C102.46 14.4099 104.032 12.6407 106.04 11.3571C108.048 10.0739 110.353 9.43189 112.957 9.43189C114.919 9.43189 116.679 9.81264 118.237 10.5733C119.775 11.317 121.106 12.4266 122.115 13.8048V10.1197H128V38.804V38.804ZM122.005 20.1576C121.363 18.5261 120.35 17.2384 118.966 16.2934C117.581 15.3497 115.982 14.8774 114.167 14.8774C111.6 14.8774 109.556 15.7393 108.034 17.4624C106.512 19.1859 105.752 21.5145 105.752 24.4479C105.752 27.4003 106.484 29.7378 107.951 31.4609C109.418 33.1844 111.407 34.0459 113.919 34.0459C115.771 34.0459 117.421 33.5696 118.87 32.6161C120.318 31.663 121.363 30.3794 122.005 28.7657V20.1576V20.1576Z"
        fill="#262626" />
</svg>
