<svg width="93" height="93" viewBox="0 0 93 93" fill="none" xmlns="http://www.w3.org/2000/svg">
    <path
        d="M46.5 0C37.3032 0 28.3129 2.72718 20.666 7.83666C13.0191 12.9461 7.0591 20.2085 3.53962 28.7052C0.0201477 37.202 -0.900707 46.5516 0.893505 55.5717C2.68772 64.5918 7.11641 72.8773 13.6196 79.3805C20.1227 85.8836 28.4082 90.3123 37.4283 92.1065C46.4484 93.9007 55.798 92.9799 64.2948 89.4604C72.7916 85.9409 80.0539 79.9809 85.1633 72.334C90.2728 64.6871 93 55.6968 93 46.5C93 40.3935 91.7972 34.3469 89.4604 28.7052C87.1236 23.0636 83.6984 17.9375 79.3805 13.6195C75.0625 9.30161 69.9364 5.87644 64.2948 3.5396C58.6532 1.20276 52.6065 0 46.5 0V0ZM46.5 83.7C39.1426 83.7 31.9503 81.5182 25.8328 77.4307C19.7153 73.3431 14.9473 67.5332 12.1317 60.7358C9.31612 53.9384 8.57944 46.4587 10.0148 39.2426C11.4502 32.0265 14.9931 25.3981 20.1956 20.1956C25.3982 14.9931 32.0266 11.4502 39.2427 10.0148C46.4587 8.57942 53.9384 9.3161 60.7358 12.1317C67.5332 14.9473 73.3431 19.7153 77.4307 25.8328C81.5183 31.9503 83.7 39.1425 83.7 46.5C83.7 56.366 79.7807 65.828 72.8044 72.8044C65.828 79.7807 56.3661 83.7 46.5 83.7V83.7Z"
        fill="white" />
    <path
        d="M65.1001 41.85H51.1501V27.9C51.1501 26.6667 50.6602 25.484 49.7881 24.612C48.9161 23.7399 47.7334 23.25 46.5001 23.25C45.2668 23.25 44.0841 23.7399 43.2121 24.612C42.34 25.484 41.8501 26.6667 41.8501 27.9V46.5C41.8501 47.7333 42.34 48.916 43.2121 49.788C44.0841 50.6601 45.2668 51.15 46.5001 51.15H65.1001C66.3333 51.15 67.5161 50.6601 68.3881 49.788C69.2602 48.916 69.7501 47.7333 69.7501 46.5C69.7501 45.2667 69.2602 44.084 68.3881 43.212C67.5161 42.3399 66.3333 41.85 65.1001 41.85Z"
        fill="white" />
</svg>
