<svg width="60" height="40" viewBox="0 0 60 40" fill="none" xmlns="http://www.w3.org/2000/svg">
    <path
        d="M43.0613 0C38.1412 0 34.2956 3.7176 30.8144 8.44C26.0298 2.3284 22.0291 0 17.2405 0C7.47992 0 0 12.7448 0 26.2344C0 34.676 4.07089 40 10.8889 40C15.7963 40 19.3258 37.6788 25.6004 26.676C25.6004 26.676 28.2159 22.0424 30.015 18.8504C30.6457 19.8716 31.308 20.9704 32.0073 22.1516L34.9499 27.1172C40.681 36.7392 43.8739 40 49.6605 40C56.3027 40 59.9996 34.6032 59.9996 25.9864C60 11.8624 52.3518 0 43.0613 0ZM20.8158 23.6964C15.7286 31.6964 13.969 33.4896 11.1365 33.4896C8.22193 33.4896 6.4895 30.9224 6.4895 26.3448C6.4895 16.5516 11.3566 6.538 17.1587 6.538C20.3006 6.538 22.9262 8.358 26.948 14.1344C23.1291 20.0108 20.8158 23.6964 20.8158 23.6964V23.6964ZM40.0152 22.6896L36.4973 16.8036C35.6126 15.3546 34.6975 13.9246 33.7525 12.5144C36.9231 7.6048 39.5383 5.1584 42.6491 5.1584C49.1107 5.1584 54.2804 14.7036 54.2804 26.4276C54.2804 30.8964 52.8215 33.4896 49.7984 33.4896C46.9006 33.4896 45.5166 31.5696 40.0152 22.6896V22.6896Z"
        fill="#0180FA" />
    <path
        d="M58.0476 13.9998H52.0963C53.4727 17.4982 54.2805 21.7926 54.2805 26.4274C54.2805 30.8962 52.8216 33.4894 49.7985 33.4894C49.2376 33.4894 48.7332 33.4174 48.2448 33.237V39.9278C48.7005 39.9766 49.1714 39.9998 49.661 39.9998C56.3032 39.9998 60.0001 34.603 60.0001 25.9862C60.0001 21.6914 59.2928 17.6062 58.0476 13.9998V13.9998Z"
        fill="url(#paint0_linear_959_553)" />
    <path
        d="M17.241 0C17.3423 0 17.4432 0.0012 17.5437 0.0032V6.5472C17.4161 6.5412 17.2877 6.538 17.1589 6.538C11.5039 6.538 6.73686 16.0508 6.49883 25.6H0.0057373C0.235398 12.348 7.63278 0 17.2406 0H17.241Z"
        fill="url(#paint1_linear_959_553)" />
    <path
        d="M17.241 0C21.6875 0 25.4549 2.008 29.8013 7.1884C31.0234 8.7196 32.4971 10.7104 34.074 13.0112L34.0808 13.0212L34.0907 13.02C34.9156 14.2666 35.7179 15.528 36.4974 16.8036L40.0153 22.6896C45.5167 31.5696 46.9007 33.4896 49.7986 33.4896H49.8396V39.9988C49.7802 39.9996 49.7208 40 49.661 40C43.8744 40 40.6811 36.7392 34.9496 27.1172L32.007 22.1516C31.7041 21.6393 31.3992 21.1281 31.0924 20.618L31.1 20.6C28.907 17 27.5115 14.8 26.3154 13.2L26.2954 13.2152C22.6352 8.1632 20.1273 6.538 17.1585 6.538H17.1449V0H17.241Z"
        fill="url(#paint2_linear_959_553)" />
    <defs>
        <linearGradient id="paint0_linear_959_553" x1="49.8396" y1="38.7998" x2="63.9316"
            y2="23.0188" gradientUnits="userSpaceOnUse">
            <stop offset="0.21" stop-color="#0278F1" />
            <stop offset="0.533" stop-color="#0180FA" />
        </linearGradient>
        <linearGradient id="paint1_linear_959_553" x1="17.5437" y1="2" x2="-0.0723975" y2="25.5457"
            gradientUnits="userSpaceOnUse">
            <stop offset="0.427" stop-color="#0165E0" />
            <stop offset="0.917" stop-color="#0180FA" />
        </linearGradient>
        <linearGradient id="paint2_linear_959_553" x1="11.3635" y1="11.6" x2="53.865" y2="28.7051"
            gradientUnits="userSpaceOnUse">
            <stop stop-color="#0064E0" />
            <stop offset="0.656" stop-color="#0066E2" />
            <stop offset="1" stop-color="#0278F1" />
        </linearGradient>
    </defs>
</svg>
