<svg width="39" height="40" viewBox="0 0 39 40" fill="none" xmlns="http://www.w3.org/2000/svg">
    <path
        d="M33.3274 5.76029C25.7396 -1.87957 13.3946 -1.92287 5.75104 5.66749C-1.89126 13.2566 -1.93085 25.6016 5.65578 33.244C13.2461 40.8851 25.5911 40.9271 33.2346 33.338C40.8757 25.7489 40.9165 13.4039 33.3274 5.76029ZM27.9393 4.85588L23.8033 8.96346C21.0715 7.84748 17.9933 7.83635 15.2541 8.93377L11.1466 4.79773C16.3441 1.8519 22.7616 1.87293 27.9393 4.85588ZM8.92698 23.7409L4.79096 27.8472C1.84267 22.6496 1.86494 16.2321 4.84911 11.0544L8.95791 15.1904C7.83947 17.921 7.82957 21.0004 8.92698 23.7409ZM11.0463 34.1484L15.1836 30.0408C17.9141 31.1555 20.9936 31.1679 23.7315 30.0693L27.8391 34.2065C22.6428 37.1524 16.2229 37.1313 11.0463 34.1484ZM25.6975 25.7513C22.2518 29.1735 16.6646 29.1537 13.2412 25.708C9.81902 22.2624 9.83881 16.6751 13.2857 13.2529C16.7326 9.83075 22.3186 9.84931 25.7408 13.295C29.1642 16.7406 29.1444 22.328 25.6975 25.7513ZM30.0278 23.8126C31.1437 21.0808 31.1561 18.0026 30.0574 15.2634L34.1935 11.1558C37.1405 16.3522 37.1195 22.7709 34.1353 27.9487L30.0278 23.8126Z"
        fill="black" />
</svg>
