<svg width="506" height="562" viewBox="0 0 506 562" fill="none" xmlns="http://www.w3.org/2000/svg">
    <path
        d="M420.897 56.1994H392.847V28.1495C392.847 20.7103 389.892 13.5757 384.632 8.31531C379.371 3.05494 372.237 0.0997009 364.797 0.0997009C357.358 0.0997009 350.224 3.05494 344.963 8.31531C339.703 13.5757 336.748 20.7103 336.748 28.1495V56.1994H168.448V28.1495C168.448 20.7103 165.493 13.5757 160.233 8.31531C154.973 3.05494 147.838 0.0997009 140.399 0.0997009C132.959 0.0997009 125.825 3.05494 120.564 8.31531C115.304 13.5757 112.349 20.7103 112.349 28.1495V56.1994H84.2989C61.9811 56.1994 40.5773 65.0651 24.7962 80.8462C9.01515 96.6273 0.149414 118.031 0.149414 140.349V476.947C0.149414 499.265 9.01515 520.669 24.7962 536.45C40.5773 552.231 61.9811 561.097 84.2989 561.097H420.897C443.215 561.097 464.619 552.231 480.4 536.45C496.181 520.669 505.047 499.265 505.047 476.947V140.349C505.047 118.031 496.181 96.6273 480.4 80.8462C464.619 65.0651 443.215 56.1994 420.897 56.1994V56.1994ZM140.399 420.847C134.851 420.847 129.428 419.202 124.815 416.12C120.202 413.038 116.607 408.657 114.484 403.532C112.361 398.406 111.805 392.766 112.888 387.325C113.97 381.884 116.642 376.886 120.564 372.963C124.487 369.04 129.485 366.369 134.926 365.287C140.368 364.204 146.007 364.76 151.133 366.883C156.258 369.006 160.639 372.601 163.721 377.214C166.803 381.827 168.448 387.25 168.448 392.798C168.448 400.237 165.493 407.371 160.233 412.632C154.973 417.892 147.838 420.847 140.399 420.847V420.847ZM364.797 420.847H252.598C245.159 420.847 238.024 417.892 232.764 412.632C227.503 407.371 224.548 400.237 224.548 392.798C224.548 385.358 227.503 378.224 232.764 372.963C238.024 367.703 245.159 364.748 252.598 364.748H364.797C372.237 364.748 379.371 367.703 384.632 372.963C389.892 378.224 392.847 385.358 392.847 392.798C392.847 400.237 389.892 407.371 384.632 412.632C379.371 417.892 372.237 420.847 364.797 420.847ZM448.947 252.548H56.2491V140.349C56.2491 132.91 59.2044 125.775 64.4647 120.515C69.7251 115.254 76.8597 112.299 84.2989 112.299H112.349V140.349C112.349 147.788 115.304 154.923 120.564 160.183C125.825 165.444 132.959 168.399 140.399 168.399C147.838 168.399 154.973 165.444 160.233 160.183C165.493 154.923 168.448 147.788 168.448 140.349V112.299H336.748V140.349C336.748 147.788 339.703 154.923 344.963 160.183C350.224 165.444 357.358 168.399 364.797 168.399C372.237 168.399 379.371 165.444 384.632 160.183C389.892 154.923 392.847 147.788 392.847 140.349V112.299H420.897C428.336 112.299 435.471 115.254 440.731 120.515C445.992 125.775 448.947 132.91 448.947 140.349V252.548Z"
        fill="white" />
</svg>
