<svg width="40" height="40" viewBox="0 0 40 40" fill="none" xmlns="http://www.w3.org/2000/svg">
    <g clip-path="url(#clip0_964_626)">
        <path
            d="M20 40C31.0457 40 40 31.0457 40 20C40 8.9543 31.0457 0 20 0C8.9543 0 0 8.9543 0 20C0 31.0457 8.9543 40 20 40Z"
            fill="#0095F6" />
        <path
            d="M13.7551 29.7541L6.44042 21.9253C5.439 20.8535 5.49648 19.1577 6.56829 18.1563C7.6401 17.1549 9.33585 17.2125 10.3373 18.2842L15.9795 24.3229L24.9103 15.9785C24.9907 15.9034 25.0746 15.8346 25.1614 15.7713L29.3612 11.8473C30.433 10.8459 32.1289 10.9035 33.1302 11.9754C34.1316 13.047 34.074 14.7429 33.0023 15.7443L20.1749 27.7294L20.1612 27.7147L15.724 31.8606L13.7551 29.7532V29.7541Z"
            fill="white" />
    </g>
    <defs>
        <clipPath id="clip0_964_626">
            <rect width="40" height="40" fill="white" />
        </clipPath>
    </defs>
</svg>
