<svg width="40" height="40" viewBox="0 0 40 40" fill="none" xmlns="http://www.w3.org/2000/svg">
    <path
        d="M38.8582 6.47727L20.7101 0.119688C20.2555 -0.0395313 19.7444 -0.0396094 19.2899 0.119688L1.14176 6.47727C0.450556 6.71946 0 7.28883 0 7.92032V15.6488C0 26.2905 7.62306 35.8629 19.3002 39.8844C19.7487 40.0389 20.2512 40.0389 20.6998 39.8844C32.3768 35.863 40 26.2906 40 15.6488V7.92032C40 7.28883 39.5495 6.71946 38.8582 6.47727V6.47727ZM36.2963 15.6488C36.2963 24.6953 30 33.0232 20 36.7406C10.2672 33.1225 3.7037 24.9405 3.7037 15.6488V8.96344L20 3.25453L36.2963 8.96344V15.6488ZM17.9531 20.9156L25.9128 14.1997C26.6359 13.5895 27.8084 13.5895 28.5317 14.1997C29.2549 14.8099 29.2548 15.7992 28.5316 16.4094L19.2626 24.2301C18.5393 24.8404 17.3668 24.8402 16.6437 24.2301L11.4683 19.8634C10.7451 19.2531 10.7451 18.2638 11.4683 17.6537C12.1916 17.0435 13.3641 17.0435 14.0872 17.6537L17.9531 20.9156Z"
        fill="black" />
</svg>
