<svg width="209" height="142" viewBox="0 0 209 142" fill="none" xmlns="http://www.w3.org/2000/svg">
    <defs>
        <linearGradient id="paint0_linear_148_25" x1="92.7964" y1="89.3847" x2="112.765"
            y2="71.8175" gradientUnits="userSpaceOnUse">
            <stop stop-color="#A60F93" />
            <stop offset="0.519909" stop-color="#D91A46" />
            <stop offset="1" stop-color="#FBAA47" />
        </linearGradient>
        <linearGradient id="paint1_linear_148_25" x1="122.062" y1="141.504" x2="170.882"
            y2="123.755" gradientUnits="userSpaceOnUse">
            <stop offset="0.248466" stop-color="#FFDD55" />
            <stop offset="0.703347" stop-color="#FF543E" />
            <stop offset="1" stop-color="#C837AB" />
        </linearGradient>
        <linearGradient id="paint2_linear_148_25" x1="159.363" y1="197.867" x2="232.185" y2="176.77"
            gradientUnits="userSpaceOnUse">
            <stop offset="0.248466" stop-color="#FFDD55" />
            <stop offset="0.703347" stop-color="#FF543E" />
            <stop offset="1" stop-color="#C837AB" />
        </linearGradient>
        <linearGradient id="paint3_linear_148_25" x1="115.882" y1="51.9122" x2="95.9129"
            y2="69.4794" gradientUnits="userSpaceOnUse">
            <stop offset="0.248466" stop-color="#FFDD55" />
            <stop offset="0.703347" stop-color="#FF543E" />
            <stop offset="1" stop-color="#C837AB" />
        </linearGradient>
        <linearGradient id="paint4_linear_148_25" x1="86.6167" y1="-0.20736" x2="37.7963"
            y2="17.5416" gradientUnits="userSpaceOnUse">
            <stop offset="0.248466" stop-color="#FFDD55" />
            <stop offset="0.703347" stop-color="#FF543E" />
            <stop offset="1" stop-color="#C837AB" />
        </linearGradient>
        <linearGradient id="paint5_linear_148_25" x1="49.3153" y1="-56.5702" x2="-23.5068"
            y2="-35.4727" gradientUnits="userSpaceOnUse">
            <stop offset="0.248466" stop-color="#FFDD55" />
            <stop offset="0.703347" stop-color="#FF543E" />
            <stop offset="1" stop-color="#C837AB" />
        </linearGradient>
    </defs>
    <path
        d="M94.0943 70.6076C94.0943 76.3605 98.758 81.0243 104.511 81.0243C110.264 81.0243 114.928 76.3605 114.928 70.6076C114.928 64.8546 110.264 60.1909 104.511 60.1909C98.758 60.1909 94.0943 64.8546 94.0943 70.6076Z"
        fill="url(#paint0_linear_148_25)" />
    <path
        d="M156.594 70.6072C156.595 57.1252 151.367 44.1684 142.011 34.4614C140.091 32.4722 137.459 31.3273 134.695 31.2785C131.931 31.2296 129.26 32.2809 127.271 34.2009C125.282 36.121 124.137 38.7526 124.088 41.5168C124.04 44.281 125.091 46.9514 127.011 48.9405C132.428 54.8562 135.432 62.5862 135.432 70.6072C135.432 78.6282 132.428 86.3582 127.011 92.2739C125.091 94.263 124.04 96.9334 124.088 99.6976C124.137 102.462 125.282 105.093 127.271 107.013C129.26 108.933 131.931 109.985 134.695 109.936C137.459 109.887 140.091 108.742 142.011 106.753C151.367 97.046 156.595 84.0892 156.594 70.6072V70.6072Z"
        fill="url(#paint1_linear_148_25)" />
    <path
        d="M208.678 70.6075C208.669 58.0263 206.129 45.5755 201.207 33.9969C196.286 22.4182 189.084 11.9485 180.032 3.21163C179.026 2.26091 177.843 1.51754 176.551 1.02396C175.258 0.530371 173.881 0.29624 172.498 0.334931C171.114 0.373622 169.752 0.684379 168.489 1.24945C167.226 1.81453 166.087 2.62286 165.136 3.6283C163.216 5.65886 162.181 8.369 162.259 11.1625C162.298 12.5457 162.609 13.9077 163.174 15.1709C163.739 16.434 164.547 17.5734 165.553 18.5241C172.61 25.3261 178.223 33.481 182.057 42.5014C185.891 51.5218 187.867 61.2227 187.867 71.0241C187.867 80.8256 185.891 90.5264 182.057 99.5468C178.223 108.567 172.61 116.722 165.553 123.524C164.568 124.489 163.785 125.639 163.249 126.909C162.712 128.178 162.433 129.542 162.428 130.92C162.435 132.956 163.039 134.944 164.165 136.64C165.291 138.337 166.889 139.666 168.761 140.464C170.634 141.261 172.7 141.493 174.703 141.13C176.706 140.767 178.558 139.825 180.032 138.42C189.135 129.634 196.366 119.097 201.289 107.443C206.212 95.7888 208.725 83.2587 208.678 70.6075V70.6075Z"
        fill="url(#paint2_linear_148_25)" />
    <path
        d="M114.584 70.6893C114.584 64.9363 109.92 60.2726 104.167 60.2726C98.4144 60.2726 93.7507 64.9363 93.7507 70.6893C93.7507 76.4423 98.4144 81.106 104.167 81.106C109.92 81.106 114.584 76.4423 114.584 70.6893Z"
        fill="url(#paint3_linear_148_25)" />
    <path
        d="M52.0841 70.6897C52.0838 84.1716 57.3113 97.1285 66.6674 106.836C68.5875 108.825 71.2191 109.97 73.9833 110.018C76.7475 110.067 79.4179 109.016 81.407 107.096C83.3962 105.176 84.5411 102.544 84.5899 99.7801C84.6387 97.0159 83.5875 94.3455 81.6674 92.3563C76.2507 86.4407 73.2462 78.7107 73.2462 70.6897C73.2462 62.6687 76.2507 54.9386 81.6674 49.023C83.5875 47.0339 84.6387 44.3635 84.5899 41.5993C84.5411 38.8351 83.3962 36.2035 81.407 34.2834C79.4179 32.3634 76.7475 31.3121 73.9833 31.361C71.2191 31.4098 68.5875 32.5547 66.6674 34.5438C57.3113 44.2509 52.0838 57.2077 52.0841 70.6897V70.6897Z"
        fill="url(#paint4_linear_148_25)" />
    <path
        d="M0.000791947 70.6894C0.00906588 83.2706 2.54957 95.7214 7.47095 107.3C12.3923 118.879 19.5939 129.348 28.6466 138.085C29.6521 139.036 30.8349 139.779 32.1276 140.273C33.4203 140.767 34.7976 141.001 36.1808 140.962C37.564 140.923 38.9261 140.612 40.1892 140.047C41.4523 139.482 42.5917 138.674 43.5425 137.669C45.4625 135.638 46.4973 132.928 46.4192 130.134C46.3805 128.751 46.0697 127.389 45.5046 126.126C44.9396 124.863 44.1312 123.723 43.1258 122.773C36.0688 115.971 30.4555 107.816 26.6215 98.7955C22.7875 89.775 20.8114 80.0742 20.8114 70.2728C20.8114 60.4713 22.7875 50.7705 26.6215 41.75C30.4555 32.7296 36.0688 24.5747 43.1258 17.7728C44.11 16.808 44.8931 15.6576 45.4295 14.388C45.9659 13.1185 46.2451 11.7551 46.2508 10.3769C46.243 8.34128 45.639 6.35253 44.5134 4.65642C43.3877 2.96031 41.7898 1.63121 39.917 0.833338C38.0442 0.0354691 35.9787 -0.196194 33.9757 0.166998C31.9727 0.53019 30.12 1.47231 28.6466 2.87692C19.5433 11.6625 12.3124 22.1997 7.38931 33.8539C2.46627 45.5081 -0.0470316 58.0382 0.000791947 70.6894V70.6894Z"
        fill="url(#paint5_linear_148_25)" />
</svg>
