<svg width="113" height="128" viewBox="0 0 113 128" fill="none" xmlns="http://www.w3.org/2000/svg">
    <path
        d="M30.9313 19.5913L51.1235 34.2135L69.9637 19.9796L63.603 43.2506L83.7952 57.8728L59.6719 57.6328L53.3111 80.9037L44.7628 57.4844L20.6394 57.2444L39.4796 43.0105L30.9313 19.5913Z"
        fill="white" />
    <path
        d="M26 73L31.8374 92.002H50.7275L35.4451 103.746L41.2824 122.748L26 111.004L10.7176 122.748L16.5549 103.746L1.27253 92.002H20.1626L26 73Z"
        fill="white" />
    <path
        d="M87 66L92.8374 85.002H111.727L96.4451 96.7459L102.282 115.748L87 104.004L71.7176 115.748L77.5549 96.7459L62.2725 85.002H81.1626L87 66Z"
        fill="white" />
</svg>
