<svg width="15" height="23" viewBox="0 0 15 23" fill="none" xmlns="http://www.w3.org/2000/svg">
    <path
        d="M7.80675 0L7.9318 0.0067403C8.44118 0.0662135 8.81623 0.498666 8.81593 0.999348L8.80908 1.11596L7.932 8.62496L12.2554 10.5711C12.7146 10.7995 12.9212 11.3334 12.7514 11.8044L12.7055 11.9118L7.88994 21.5945C7.70211 21.9721 7.29752 22.1913 6.87858 22.1424C6.3692 22.0829 5.99416 21.6505 5.99446 21.1498L6.00131 21.0332L6.878 13.525L2.55495 11.5792C2.09576 11.3509 1.88919 10.817 2.05892 10.346L2.10482 10.2385L6.92043 0.554726C7.08947 0.214815 7.4341 0.00325346 7.80675 0Z"
        fill="white" />
    <line x1="0.788211" y1="4.29027" x2="13.8451" y2="19.4401" stroke="white" stroke-width="1.5" />
</svg>
