<svg width="41" height="41" viewBox="0 0 41 41" fill="none" xmlns="http://www.w3.org/2000/svg">
    <path
        d="M19.0193 2.73446C18.6983 2.43497 18.2454 2.29174 17.796 2.3588C17.348 2.4213 16.9579 2.67912 16.7458 3.05348L7.75216 18.9043L2.84991 23.4773C1.3419 24.8856 0.880631 26.885 1.41377 28.678C-0.351038 30.7692 -0.225429 33.8051 1.84015 35.7349C2.95528 36.774 4.41933 37.2935 5.88337 37.2935C7.13388 37.2935 8.37044 36.8905 9.40323 36.132C9.90497 36.2622 10.4172 36.3508 10.935 36.3508C11.9377 36.3501 12.9329 36.0878 13.8233 35.6001L17.505 39.0338C18.2008 39.6836 19.1156 40.0078 20.0305 40.0078C20.9453 40.0078 21.8609 39.6836 22.5573 39.0338C23.9502 37.7343 23.9502 35.6196 22.5573 34.3201L19.02 31.0199L19.879 30.2184L36.8684 21.8262C37.269 21.6283 37.5453 21.2644 37.6137 20.8457C37.6807 20.4277 37.5314 20.0039 37.2104 19.7051L19.0193 2.73446ZM3.86176 33.8488C3.11718 33.1534 2.88131 32.1697 3.13183 31.2816L6.61261 34.5291C5.66146 34.7629 4.60704 34.5434 3.86176 33.8488V33.8488ZM8.91475 32.906L4.87152 29.1338C3.75778 28.0947 3.75778 26.4026 4.87152 25.3628L8.91475 21.5905L16.9998 29.1338L12.9566 32.9054C11.8428 33.9458 10.0299 33.9464 8.91475 32.906V32.906ZM20.5364 36.2056C20.7157 36.3729 20.743 36.5728 20.743 36.677C20.743 36.7811 20.7157 36.981 20.5371 37.1477C20.2636 37.4016 19.8009 37.4049 19.5259 37.1483L15.9879 33.8488L16.9991 32.9054L20.5364 36.2056ZM19.2845 27.495L10.6719 19.4583L18.3669 5.89668L33.8217 20.3145L19.2845 27.495ZM24.4624 4.00794V1.34119C24.4624 0.604837 25.1016 0.0078125 25.8916 0.0078125C26.6815 0.0078125 27.3207 0.604837 27.3207 1.34119V4.00794C27.3207 4.74429 26.6815 5.34132 25.8916 5.34132C25.1016 5.34132 24.4624 4.74429 24.4624 4.00794ZM40.1831 13.3409C40.1831 14.0773 39.5439 14.6743 38.754 14.6743H35.8956C35.1057 14.6743 34.4665 14.0773 34.4665 13.3409C34.4665 12.6046 35.1057 12.0076 35.8956 12.0076H38.754C39.5439 12.0076 40.1831 12.6046 40.1831 13.3409ZM30.5977 8.95016C30.0395 8.42931 30.0395 7.58553 30.5977 7.06468L33.456 4.39793C34.0143 3.87708 34.9187 3.87708 35.4769 4.39793C36.0352 4.91878 36.0352 5.76256 35.4769 6.28341L32.6186 8.95016C32.3395 9.21059 31.9738 9.3408 31.6082 9.3408C31.2425 9.3408 30.8768 9.21059 30.5977 8.95016Z"
        fill="black" />
</svg>
