<svg width="25" height="24" viewBox="0 0 25 24" fill="none" xmlns="http://www.w3.org/2000/svg">
    <path fill-rule="evenodd" clip-rule="evenodd"
        d="M12.5 0.25C18.9893 0.25 24.25 5.51065 24.25 12C24.25 18.4893 18.9893 23.75 12.5 23.75C9.13927 23.75 6.00521 22.3305 3.7921 19.889C3.51391 19.5821 3.53718 19.1078 3.84407 18.8297C4.15096 18.5515 4.62527 18.5747 4.90346 18.8816C6.83513 21.0126 9.56712 22.25 12.5 22.25C18.1609 22.25 22.75 17.6609 22.75 12C22.75 6.33908 18.1609 1.75 12.5 1.75C12.0858 1.75 11.75 1.41421 11.75 1C11.75 0.585786 12.0858 0.25 12.5 0.25ZM2.5 14.25C3.19036 14.25 3.75 14.8096 3.75 15.5C3.75 16.1904 3.19036 16.75 2.5 16.75C1.80964 16.75 1.25 16.1904 1.25 15.5C1.25 14.8096 1.80964 14.25 2.5 14.25ZM3.25 10.5C3.25 9.80964 2.69036 9.25 2 9.25C1.30964 9.25 0.75 9.80964 0.75 10.5C0.75 11.1904 1.30964 11.75 2 11.75C2.69036 11.75 3.25 11.1904 3.25 10.5ZM3.75 4.25C4.44036 4.25 5 4.80964 5 5.5C5 6.19035 4.44036 6.75 3.75 6.75C3.05964 6.75 2.5 6.19035 2.5 5.5C2.5 4.80964 3.05964 4.25 3.75 4.25ZM9.25 2C9.25 1.30964 8.69036 0.749997 8 0.749997C7.30964 0.749997 6.75 1.30964 6.75 2C6.75 2.69035 7.30964 3.25 8 3.25C8.69036 3.25 9.25 2.69035 9.25 2Z"
        fill="white" />
</svg>
