<svg width="24" height="21" viewBox="0 0 24 21" fill="none" xmlns="http://www.w3.org/2000/svg">
    <path
        d="M17.3 0C15.05 0 13.35 0.9 12 2.8C10.65 0.95 8.95 0.0500001 6.7 0.0500001C3 7.07805e-08 0 3.25 0 7.25C0 10.9 2.7 13.25 5.3 15.5C5.6 15.75 5.95 16.05 6.25 16.35L7.4 17.35C9.6 19.3 10.7 20.3 11.2 20.6C11.45 20.75 11.75 20.85 12 20.85C12.25 20.85 12.55 20.75 12.8 20.6C13.3 20.3 14.2 19.5 16.7 17.2L17.7 16.3C18.05 16 18.35 15.7 18.7 15.45C21.35 13.25 24 10.95 24 7.25C24 3.25 21 0 17.3 0V0Z"
        fill="#ED4956" />
</svg>
