<svg width="201" height="41" viewBox="0 0 201 41" fill="none" xmlns="http://www.w3.org/2000/svg">
    <path
        d="M73.7761 1.30127H81.3943L94.3478 24.733L107.301 1.30127H114.754V39.804H108.539V10.2946L97.1803 30.7285H91.35L79.9916 10.2946V39.804H73.7761V1.30127V1.30127ZM134.802 40.4914C131.923 40.4914 129.393 39.8543 127.212 38.5804C125.03 37.3061 123.329 35.5409 122.11 33.2864C120.891 31.0307 120.281 28.446 120.281 25.5305C120.281 22.5789 120.877 19.9659 122.069 17.6928C123.261 15.4193 124.915 13.6407 127.033 12.3571C129.151 11.0739 131.585 10.4319 134.335 10.4319C137.066 10.4319 139.418 11.0783 141.389 12.3709C143.36 13.6634 144.877 15.4739 145.941 17.8026C147.003 20.1312 147.536 22.8624 147.536 25.9979V27.7032H126.442C126.827 30.05 127.775 31.8971 129.288 33.2443C130.801 34.5923 132.712 35.2659 135.022 35.2659C136.874 35.2659 138.469 34.9908 139.808 34.4408C141.146 33.8907 142.402 33.0567 143.575 31.9384L146.875 35.9808C143.593 38.9883 139.569 40.4914 134.802 40.4914V40.4914ZM139.34 17.6511C138.038 16.3221 136.333 15.657 134.225 15.657C132.171 15.657 130.452 16.3359 129.068 17.6924C127.684 19.0493 126.808 20.8737 126.442 23.1654H141.568C141.384 20.8186 140.642 18.9809 139.34 17.6511V17.6511ZM155.072 16.2075H149.351V11.1197H155.072V2.70396H161.067V11.1197H169.757V16.2075H161.067V29.1059C161.067 31.2506 161.434 32.7817 162.167 33.6983C162.9 34.6154 164.156 35.0735 165.935 35.0735C166.723 35.0735 167.392 35.0419 167.942 34.9775C168.549 34.9051 169.155 34.8178 169.757 34.7158V39.7485C169.079 39.9503 168.314 40.1155 167.461 40.2439C166.573 40.3745 165.677 40.4388 164.78 40.4363C158.307 40.4363 155.072 36.8982 155.072 29.8208V16.2075V16.2075ZM201 39.804H195.115V35.7888C194.07 37.2923 192.74 38.452 191.127 39.2673C189.514 40.0831 187.68 40.4914 185.627 40.4914C183.096 40.4914 180.855 39.8449 178.903 38.5524C176.95 37.2599 175.414 35.4818 174.296 33.2171C173.178 30.9529 172.618 28.3634 172.618 25.4483C172.618 22.5145 173.187 19.9202 174.324 17.6649C175.46 15.4099 177.032 13.6407 179.04 12.3571C181.048 11.0739 183.353 10.4319 185.957 10.4319C187.919 10.4319 189.679 10.8126 191.237 11.5733C192.775 12.317 194.106 13.4266 195.115 14.8048V11.1197H201V39.804V39.804ZM195.005 21.1576C194.363 19.5261 193.35 18.2384 191.966 17.2934C190.581 16.3497 188.982 15.8774 187.167 15.8774C184.6 15.8774 182.556 16.7393 181.034 18.4624C179.512 20.1859 178.752 22.5145 178.752 25.4479C178.752 28.4003 179.484 30.7378 180.951 32.4609C182.418 34.1844 184.407 35.0459 186.919 35.0459C188.771 35.0459 190.421 34.5696 191.87 33.6161C193.318 32.663 194.363 31.3794 195.005 29.7657V21.1576V21.1576Z"
        fill="#262626" />
    <path
        d="M43.7453 0C38.747 0 34.8403 3.76453 31.3038 8.54654C26.4432 2.35779 22.379 0 17.5143 0C7.59872 0 0 12.9057 0 26.5656C0 35.1137 4.13555 40.5049 11.0619 40.5049C16.0472 40.5049 19.6327 38.1544 26.007 27.0127C26.007 27.0127 28.6641 22.3206 30.4917 19.0884C31.1325 20.1224 31.8053 21.2351 32.5157 22.4312L35.505 27.4595C41.3272 37.203 44.5708 40.5049 50.4493 40.5049C57.197 40.5049 60.9526 35.04 60.9526 26.3144C60.953 12.0121 53.1834 0 43.7453 0ZM21.1464 23.9955C15.9784 32.0965 14.1909 33.9123 11.3134 33.9123C8.35252 33.9123 6.59258 31.3127 6.59258 26.6774C6.59258 16.7605 11.537 6.62053 17.4313 6.62053C20.6231 6.62053 23.2903 8.4635 27.3761 14.3128C23.4965 20.2634 21.1464 23.9955 21.1464 23.9955V23.9955ZM40.6507 22.976L37.077 17.0157C36.1782 15.5484 35.2486 14.1003 34.2886 12.6724C37.5096 7.7008 40.1663 5.22351 43.3265 5.22351C49.8907 5.22351 55.1426 14.8892 55.1426 26.7612C55.1426 31.2864 53.6605 33.9123 50.5894 33.9123C47.6455 33.9123 46.2396 31.9681 40.6507 22.976V22.976Z"
        fill="#0180FA" />
    <path
        d="M58.9695 14.1765H52.9238C54.322 17.7191 55.1426 22.0677 55.1426 26.761C55.1426 31.2862 53.6605 33.9121 50.5895 33.9121C50.0196 33.9121 49.5072 33.8392 49.011 33.6565V40.4318C49.474 40.4812 49.9523 40.5047 50.4497 40.5047C57.1974 40.5047 60.9531 35.0398 60.9531 26.3142C60.9531 21.9652 60.2345 17.8284 58.9695 14.1765V14.1765Z"
        fill="url(#paint0_linear_959_547)" />
    <path
        d="M17.5148 0C17.6177 0 17.7202 0.00121515 17.8222 0.00324039V6.62985C17.6926 6.62377 17.5622 6.62053 17.4314 6.62053C11.6865 6.62053 6.84378 16.2534 6.60196 25.9232H0.0057373C0.239046 12.5039 7.75392 0 17.5144 0H17.5148Z"
        fill="url(#paint1_linear_959_547)" />
    <path
        d="M17.5149 0C22.032 0 25.8593 2.03335 30.2747 7.27914C31.5162 8.82967 33.0133 10.8456 34.6152 13.1754L34.6221 13.1856L34.6322 13.1844C35.4702 14.4467 36.2853 15.724 37.0771 17.0157L40.6509 22.976C46.2397 31.9681 47.6457 33.9123 50.5896 33.9123H50.6313V40.5037C50.5709 40.5045 50.5106 40.5049 50.4498 40.5049C44.5713 40.5049 41.3273 37.203 35.5047 27.4595L32.5154 22.4312C32.2077 21.9124 31.8979 21.3948 31.5863 20.8783L31.594 20.86C29.3662 17.2146 27.9485 14.9868 26.7334 13.3666L26.7131 13.382C22.9948 8.26624 20.447 6.62053 17.431 6.62053H17.4172V0H17.5149Z"
        fill="url(#paint2_linear_959_547)" />
    <defs>
        <linearGradient id="paint0_linear_959_547" x1="50.6312" y1="39.2896" x2="64.8958"
            y2="23.2638" gradientUnits="userSpaceOnUse">
            <stop offset="0.21" stop-color="#0278F1" />
            <stop offset="0.533" stop-color="#0180FA" />
        </linearGradient>
        <linearGradient id="paint1_linear_959_547" x1="17.8222" y1="2.02525" x2="6.38293e-05"
            y2="25.9231" gradientUnits="userSpaceOnUse">
            <stop offset="0.427" stop-color="#0165E0" />
            <stop offset="0.917" stop-color="#0180FA" />
        </linearGradient>
        <linearGradient id="paint2_linear_959_547" x1="11.544" y1="11.7464" x2="54.6818"
            y2="29.1635" gradientUnits="userSpaceOnUse">
            <stop stop-color="#0064E0" />
            <stop offset="0.656" stop-color="#0066E2" />
            <stop offset="1" stop-color="#0278F1" />
        </linearGradient>
    </defs>
</svg>
