<svg width="40" height="40" viewBox="0 0 40 40" fill="none" xmlns="http://www.w3.org/2000/svg">
    <path
        d="M23.6646 20.0329L39.2398 4.45717C40.2534 3.44404 40.2534 1.80594 39.2398 0.792809C38.2267 -0.220324 36.5886 -0.220324 35.5755 0.792809L19.9998 16.3685L4.42457 0.792809C3.41096 -0.220324 1.77334 -0.220324 0.760206 0.792809C-0.253402 1.80594 -0.253402 3.44404 0.760206 4.45717L16.3354 20.0329L0.760206 35.6085C-0.253402 36.6217 -0.253402 38.2598 0.760206 39.2729C1.26511 39.7783 1.92899 40.0322 2.59239 40.0322C3.25579 40.0322 3.91919 39.7783 4.42457 39.2729L19.9998 23.6972L35.5755 39.2729C36.0808 39.7783 36.7442 40.0322 37.4076 40.0322C38.071 40.0322 38.7344 39.7783 39.2398 39.2729C40.2534 38.2598 40.2534 36.6217 39.2398 35.6085L23.6646 20.0329Z"
        fill="black" />
</svg>
