<svg width="19" height="12" viewBox="0 0 19 12" fill="none" xmlns="http://www.w3.org/2000/svg">
    <path
        d="M2.82848 11H0.356889L4.12287 0.0909088H7.09517L10.8558 11H8.38423L5.65163 2.58381H5.56641L2.82848 11ZM2.67401 6.712H8.51207V8.51243H2.67401V6.712ZM14.2093 11.1545C13.6873 11.1545 13.2221 11.0639 12.8137 10.8828C12.4054 10.6982 12.0822 10.4265 11.8443 10.0678C11.6099 9.70561 11.4927 9.25462 11.4927 8.71484C11.4927 8.2603 11.5762 7.87855 11.7431 7.5696C11.91 7.26065 12.1373 7.01207 12.4249 6.82386C12.7125 6.63565 13.0392 6.49361 13.405 6.39773C13.7743 6.30185 14.1614 6.23438 14.5662 6.19531C15.0421 6.1456 15.4256 6.09943 15.7168 6.05682C16.008 6.01065 16.2193 5.94318 16.3507 5.8544C16.4821 5.76562 16.5478 5.63423 16.5478 5.46023V5.42827C16.5478 5.09091 16.4412 4.8299 16.2282 4.64524C16.0186 4.46058 15.7203 4.36825 15.3333 4.36825C14.9249 4.36825 14.6 4.45881 14.3585 4.63991C14.117 4.81747 13.9572 5.04119 13.8791 5.31108L11.7804 5.14062C11.8869 4.64347 12.0964 4.21378 12.4089 3.85156C12.7214 3.4858 13.1245 3.20526 13.6181 3.00994C14.1152 2.81108 14.6905 2.71165 15.3439 2.71165C15.7985 2.71165 16.2335 2.76491 16.649 2.87145C17.068 2.97798 17.4391 3.14311 17.7623 3.36683C18.089 3.59055 18.3464 3.8782 18.5346 4.22976C18.7228 4.57777 18.8169 4.99503 18.8169 5.48153V11H16.665V9.86541H16.601C16.4696 10.1211 16.2939 10.3466 16.0737 10.5419C15.8535 10.7337 15.589 10.8846 15.28 10.9947C14.9711 11.1012 14.6142 11.1545 14.2093 11.1545ZM14.8592 9.58842C15.193 9.58842 15.4877 9.52273 15.7434 9.39134C15.9991 9.25639 16.1998 9.07528 16.3453 8.84801C16.4909 8.62074 16.5637 8.36328 16.5637 8.07564V7.20739C16.4927 7.25355 16.3951 7.29616 16.2708 7.33523C16.15 7.37074 16.0133 7.40447 15.8606 7.43643C15.7079 7.46484 15.5552 7.49148 15.4025 7.51634C15.2498 7.53764 15.1113 7.55717 14.987 7.57493C14.7207 7.61399 14.4881 7.67614 14.2892 7.76136C14.0904 7.84659 13.9359 7.962 13.8258 8.1076C13.7157 8.24964 13.6607 8.4272 13.6607 8.64027C13.6607 8.94922 13.7725 9.18537 13.9963 9.34872C14.2235 9.50852 14.5112 9.58842 14.8592 9.58842Z"
        fill="white" />
</svg>
