<svg width="41" height="41" viewBox="0 0 41 41" fill="none" xmlns="http://www.w3.org/2000/svg">
    <path
        d="M20.6665 30.6665C20.1361 30.6665 19.6274 30.4558 19.2523 30.0807C18.8772 29.7056 18.6665 29.1969 18.6665 28.6665V18.6665C18.6665 18.1361 18.8772 17.6274 19.2523 17.2523C19.6274 16.8772 20.1361 16.6665 20.6665 16.6665C21.1969 16.6665 21.7056 16.8772 22.0807 17.2523C22.4558 17.6274 22.6665 18.1361 22.6665 18.6665V28.6665C22.6665 29.1969 22.4558 29.7056 22.0807 30.0807C21.7056 30.4558 21.1969 30.6665 20.6665 30.6665Z"
        fill="black" />
    <path
        d="M20.6665 14.6665C21.7711 14.6665 22.6665 13.7711 22.6665 12.6665C22.6665 11.5619 21.7711 10.6665 20.6665 10.6665C19.5619 10.6665 18.6665 11.5619 18.6665 12.6665C18.6665 13.7711 19.5619 14.6665 20.6665 14.6665Z"
        fill="black" />
    <path
        d="M20.6665 40.6665C16.7109 40.6665 12.8441 39.4935 9.55511 37.2959C6.26612 35.0983 3.70267 31.9747 2.18892 28.3202C0.67517 24.6657 0.279103 20.6443 1.05081 16.7647C1.82251 12.8851 3.72733 9.32143 6.52438 6.52438C9.32143 3.72733 12.8851 1.82251 16.7647 1.05081C20.6443 0.279103 24.6657 0.67517 28.3202 2.18892C31.9747 3.70267 35.0983 6.26612 37.2959 9.55511C39.4935 12.8441 40.6665 16.7109 40.6665 20.6665C40.6607 25.9691 38.5517 31.0527 34.8022 34.8022C31.0527 38.5517 25.9691 40.6607 20.6665 40.6665V40.6665ZM20.6665 4.66651C17.502 4.66651 14.4086 5.6049 11.7774 7.363C9.1462 9.1211 7.09544 11.62 5.88444 14.5436C4.67344 17.4672 4.35658 20.6843 4.97395 23.788C5.59131 26.8916 7.11516 29.7426 9.3528 31.9802C11.5904 34.2179 14.4414 35.7417 17.5451 36.3591C20.6488 36.9764 23.8658 36.6596 26.7894 35.4486C29.7131 34.2376 32.2119 32.1868 33.97 29.5556C35.7281 26.9244 36.6665 23.831 36.6665 20.6665C36.6617 16.4245 34.9745 12.3576 31.975 9.35806C28.9754 6.35851 24.9085 4.67128 20.6665 4.66651V4.66651Z"
        fill="black" />
</svg>
