<svg width="39" height="40" viewBox="0 0 39 40" fill="none" xmlns="http://www.w3.org/2000/svg">
    <path
        d="M5.45313 6.6856L5.45314 6.68559C9.06518 2.74928 14.1883 0.5 19.6731 0.5C26.6198 0.5 31.0124 3.44189 33.4744 5.89742C36.5436 8.95862 38.3663 13.0077 38.493 16.9922C38.5858 19.9131 37.7551 22.4484 36.1639 24.297C34.5758 26.142 32.1954 27.3436 29.1068 27.5402C27.9609 27.6127 26.8071 27.6107 25.6618 27.6088C25.3866 27.6083 25.1118 27.6078 24.8377 27.6084H24.8377C23.9744 27.6103 23.218 27.7711 22.5737 28.1305C21.9258 28.4921 21.427 29.0347 21.0499 29.7408C20.6681 30.455 20.5009 31.1811 20.5833 31.9166C20.6654 32.6489 20.9899 33.3454 21.5158 34.0121C22.2298 34.9175 22.3657 36.0421 21.9267 36.9498L21.9266 36.9499C21.4697 37.8949 20.4626 38.5005 19.1607 38.5032C9.5418 38.5026 1.3962 30.8593 0.577003 21.3515C0.101935 15.8307 1.83657 10.6266 5.45313 6.6856ZM29.0253 26.2579L29.0254 26.2579C32.0983 26.0624 34.2004 24.8127 35.5058 23.0479C36.7993 21.2993 37.2743 19.0955 37.2087 17.0329C37.0916 13.3464 35.3921 9.62477 32.567 6.80703C30.2617 4.50785 26.1542 1.78481 19.6731 1.78481C14.605 1.78481 9.76668 3.88514 6.39958 7.55421L6.39956 7.55422C3.0242 11.2326 1.41437 16.0979 1.85696 21.2412L1.85697 21.2412C2.6288 30.1987 10.2071 37.2183 19.1235 37.2183C19.3961 37.2183 19.711 37.1836 20.0028 37.0701C20.2999 36.9545 20.598 36.7457 20.7698 36.3905C21.029 35.8545 20.8598 35.2555 20.5069 34.8079L20.1283 35.1065L20.5069 34.8079C19.0998 33.0241 18.9041 31.0292 19.9165 29.1355L19.9166 29.1353C20.8946 27.3043 22.5698 26.3286 24.8349 26.3236C25.0992 26.3231 25.367 26.3236 25.6371 26.3241C26.7562 26.3261 27.9145 26.3283 29.0253 26.2579Z"
        fill="black" stroke="black" />
    <path
        d="M16.453 8.34172C16.453 9.45662 15.5832 10.3604 14.5104 10.3604C13.4376 10.3604 12.5679 9.45662 12.5679 8.34172C12.5679 7.22681 13.4376 6.323 14.5104 6.323C15.5832 6.323 16.453 7.22681 16.453 8.34172Z"
        fill="black" />
    <path
        d="M26.2799 8.11296C26.2799 9.22786 25.4102 10.1317 24.3373 10.1317C23.2645 10.1317 22.3948 9.22786 22.3948 8.11296C22.3948 6.99805 23.2645 6.09424 24.3373 6.09424C25.4102 6.09424 26.2799 6.99805 26.2799 8.11296Z"
        fill="black" />
    <path
        d="M33.1358 14.9692C33.1358 16.0841 32.2661 16.9879 31.1933 16.9879C30.1204 16.9879 29.2507 16.0841 29.2507 14.9692C29.2507 13.8543 30.1204 12.9504 31.1933 12.9504C32.2661 12.9504 33.1358 13.8543 33.1358 14.9692Z"
        fill="black" />
    <path
        d="M9.97761 15.2738C9.97761 16.3888 9.10791 17.2926 8.03507 17.2926C6.96223 17.2926 6.09253 16.3888 6.09253 15.2738C6.09253 14.1589 6.96223 13.2551 8.03507 13.2551C9.10791 13.2551 9.97761 14.1589 9.97761 15.2738Z"
        fill="black" />
    <path
        d="M11.1204 24.1105C11.1204 25.2254 10.2507 26.1292 9.17789 26.1292C8.10506 26.1292 7.23535 25.2254 7.23535 24.1105C7.23535 22.9956 8.10506 22.0918 9.17789 22.0918C10.2507 22.0918 11.1204 22.9956 11.1204 24.1105Z"
        fill="black" />
</svg>
