<svg width="60" height="40" viewBox="0 0 60 40" fill="none" xmlns="http://www.w3.org/2000/svg">
<path d="M43.0615 0C38.1417 0 34.2957 3.7174 30.8143 8.43974C26.0301 2.32861 22.0291 0 17.241 0C7.47939 0 0 12.7448 0 26.2345C0 34.6758 4.07075 40 10.8891 40C15.7966 40 19.326 37.6789 25.6004 26.6758C25.6004 26.6758 28.2159 22.0421 30.0152 18.8502C30.6456 19.8715 31.3082 20.9703 32.0074 22.1517L34.9496 27.1171C40.681 36.7391 43.8744 39.9999 49.6609 39.9999C56.3033 39.9999 60 34.603 60 25.986C60.0001 11.8621 52.3521 0 43.0615 0V0ZM20.8158 23.6966C15.7287 31.6966 13.9689 33.4897 11.1366 33.4897C8.22177 33.4897 6.4895 30.9226 6.4895 26.3449C6.4895 16.5517 11.3567 6.5379 17.1586 6.5379C20.3005 6.5379 22.9263 8.35827 26.948 14.1345C23.1291 20.0109 20.8158 23.6966 20.8158 23.6966ZM40.0152 22.6894L36.4973 16.8035C35.5453 15.2503 34.633 13.8229 33.7526 12.5143C36.9233 7.60491 39.5386 5.15862 42.6491 5.15862C49.111 5.15862 54.2807 14.7035 54.2807 26.4276C54.2807 30.8966 52.8215 33.4897 49.7986 33.4897C46.901 33.4896 45.5168 31.5699 40.0152 22.6894V22.6894Z" fill="black"/>
</svg>
