<svg width="94" height="106" viewBox="0 0 94 106" fill="none" xmlns="http://www.w3.org/2000/svg">
    <path
        d="M93.7824 70.4602V6.32307C93.7784 5.44727 93.5771 4.58364 93.1936 3.7963C92.81 3.00896 92.254 2.31815 91.5668 1.77516C90.8894 1.22721 90.0979 0.838021 89.2503 0.636218C88.4027 0.434416 87.5207 0.425126 86.6691 0.609031L34.1932 12.2703C32.8978 12.5625 31.7408 13.2881 30.9138 14.3271C30.0869 15.3662 29.6393 16.6564 29.6453 17.9844V66.612C25.6649 64.7329 21.1825 64.1951 16.8706 65.0792C12.5586 65.9634 8.6496 68.2219 5.72995 71.5159C2.81031 74.8099 1.03746 78.9618 0.677361 83.3487C0.31726 87.7356 1.38932 92.121 3.73273 95.847C6.07613 99.573 9.56452 102.439 13.6746 104.014C17.7846 105.59 22.2947 105.79 26.5283 104.585C30.7618 103.38 34.4905 100.835 37.1551 97.3316C39.8196 93.8281 41.2763 89.555 41.3066 85.1535C41.3669 84.1437 41.3669 83.1313 41.3066 82.1215V22.6489L82.1211 13.6114V54.9507C78.1385 53.0704 73.6534 52.533 69.3393 53.4192C65.0252 54.3053 61.115 56.5672 58.196 59.8651C55.277 63.163 53.5068 67.319 53.1511 71.7087C52.7955 76.0985 53.8736 80.4852 56.2237 84.21C58.5737 87.9348 62.0687 90.7966 66.1839 92.3657C70.2991 93.9348 74.8123 94.1264 79.0456 92.9118C83.279 91.6972 87.0041 89.1419 89.6613 85.6297C92.3186 82.1175 93.7647 77.838 93.7824 73.4338C93.8378 72.4434 93.8378 71.4507 93.7824 70.4602Z"
        fill="white" />
</svg>
