<svg width="30" height="16" viewBox="0 0 30 16" fill="none" xmlns="http://www.w3.org/2000/svg">
    <path
        d="M29.7991 9.75252C28.8395 8.08819 23.5616 -0.263496 14.5952 0.00639658C6.30346 0.216313 1.50536 7.50342 0.200882 9.75252C0.069282 9.98046 0 10.239 0 10.5022C0 10.7654 3.20304 10.2743 3.33464 10.5022L3.39515 10.4055L4.38109 8.99108L5.47311 7.68483L6.63367 6.52383L7.24143 5.99605L7.87937 5.49603L8.65433 4.95842L9.46489 4.47329L10.197 4.09938L11.0504 3.73693L11.9564 3.43486L12.8624 3.2145L13.7684 3.07282L14.7451 3.0052L15.6956 3.03657L16.6296 3.17215L17.5564 3.40437L18.4596 3.72035L19.2973 4.08967L20.1105 4.51379L20.8917 4.98827L21.6396 5.49603L22.4046 6.07175L23.1253 6.66633L24.4669 7.91133L25.6695 9.19188L26.7403 10.5022C26.7403 10.5022 30 10.7654 30 10.5022C30 10.239 29.9307 9.98046 29.7991 9.75252Z"
        fill="white" />
    <path
        d="M15.0001 5.25415C13.9622 5.25415 12.9475 5.56193 12.0845 6.13858C11.2215 6.71523 10.5489 7.53484 10.1517 8.49378C9.75447 9.45271 9.65054 10.5079 9.85304 11.5259C10.0555 12.5439 10.5553 13.479 11.2893 14.2129C12.0232 14.9468 12.9583 15.4467 13.9763 15.6491C14.9943 15.8516 16.0495 15.7477 17.0084 15.3505C17.9673 14.9533 18.7869 14.2807 19.3636 13.4177C19.9402 12.5546 20.248 11.54 20.248 10.5021C20.248 9.11023 16.7912 10.7075 15.807 9.72337C14.8228 8.7392 16.3919 5.25415 15.0001 5.25415Z"
        fill="white" />
</svg>
