<svg width="32" height="36" viewBox="0 0 32 36" fill="none" xmlns="http://www.w3.org/2000/svg">
    <path
        d="M30.8191 25.825L28.6816 22.75C28.3898 22.332 28.2328 21.8348 28.2316 21.325V12.5C28.2316 9.18479 26.9146 6.00537 24.5704 3.66116C22.2262 1.31696 19.0468 0 15.7316 0C12.4164 0 9.23697 1.31696 6.89277 3.66116C4.54857 6.00537 3.2316 9.18479 3.2316 12.5V21.325C3.2304 21.8348 3.07338 22.332 2.7816 22.75L0.644105 25.825C0.320455 26.1836 0.107627 26.6283 0.0313583 27.1053C-0.0449101 27.5823 0.0186474 28.0712 0.214345 28.5128C0.410043 28.9545 0.729499 29.3299 1.13408 29.5939C1.53867 29.8578 2.01105 29.9989 2.4941 30H9.60661C9.8935 31.4129 10.66 32.6831 11.7763 33.5955C12.8925 34.5078 14.2899 35.0063 15.7316 35.0063C17.1733 35.0063 18.5707 34.5078 19.6869 33.5955C20.8032 32.6831 21.5697 31.4129 21.8566 30H28.9691C29.4522 29.9989 29.9245 29.8578 30.3291 29.5939C30.7337 29.3299 31.0532 28.9545 31.2489 28.5128C31.4446 28.0712 31.5081 27.5823 31.4319 27.1053C31.3556 26.6283 31.1428 26.1836 30.8191 25.825V25.825ZM15.7316 32.5C14.9579 32.4978 14.2039 32.2564 13.5728 31.8088C12.9417 31.3612 12.4645 30.7294 12.2066 30H19.2566C18.9987 30.7294 18.5215 31.3612 17.8904 31.8088C17.2594 32.2564 16.5053 32.4978 15.7316 32.5V32.5ZM2.4941 27.5C2.5506 27.4476 2.60093 27.3889 2.64411 27.325L4.83161 24.175C5.41516 23.339 5.72919 22.3445 5.7316 21.325V12.5C5.7316 9.84783 6.78517 7.3043 8.66054 5.42893C10.5359 3.55357 13.0794 2.5 15.7316 2.5C18.3838 2.5 20.9273 3.55357 22.8027 5.42893C24.678 7.3043 25.7316 9.84783 25.7316 12.5V21.325C25.734 22.3445 26.048 23.339 26.6316 24.175L28.8191 27.325C28.8623 27.3889 28.9126 27.4476 28.9691 27.5H2.4941Z"
        fill="black" />
</svg>
