<svg width="25" height="26" viewBox="0 0 25 26" fill="none" xmlns="http://www.w3.org/2000/svg">
    <g filter="url(#filter0_d_0_2133)">
        <mask id="path-1-outside-1_0_2133" maskUnits="userSpaceOnUse" x="1.1344" y="0.616882"
            width="23" height="24" fill="black">
            <rect fill="white" x="1.1344" y="0.616882" width="23" height="24" />
            <path fill-rule="evenodd" clip-rule="evenodd"
                d="M22.834 7.69242C23.1509 7.49943 23.3576 6.95117 22.4173 5.77562C18.3636 0.70812 10.3117 0.312406 5.24419 4.36605L3.89817 5.59621L4.28571 2.95353L4.2937 2.85184C4.29768 2.48244 4.02814 2.15774 3.65246 2.10265C3.24263 2.04255 2.86168 2.32606 2.80158 2.73589L2.14511 7.2125C2.06498 7.75894 2.443 8.26687 2.98944 8.34701L7.95494 9.07517L8.05663 9.08316C8.42604 9.08714 8.75074 8.8176 8.80583 8.44192L8.81382 8.34024C8.8178 7.97083 8.54826 7.64613 8.17258 7.59104L4.53001 7.05634L4.97119 6.64746L6.21915 5.50489L6.45588 5.32123C10.8312 2.02802 17.7729 2.37097 21.2459 6.71261L21.4853 7.00363C22.1487 7.78449 22.4199 7.86155 22.6887 7.7614L22.7902 7.71656L22.834 7.69242ZM22.3194 23.3686L23.134 18.918C23.2334 18.3747 22.8736 17.8537 22.3303 17.7543L17.3937 16.8508L17.2924 16.8392C16.9233 16.8222 16.5893 17.0801 16.521 17.4536L16.5094 17.5549C16.4923 17.9239 16.7502 18.258 17.1237 18.3263L20.745 18.9896L20.2897 19.3826L19.002 20.4803L18.759 20.6555C14.2698 23.7917 7.34458 23.2033 4.02743 18.7414L3.79852 18.4421C3.16314 17.6382 2.89491 17.5516 2.62267 17.6422L2.51967 17.6834L2.47504 17.706C2.15148 17.8876 1.9255 18.4282 2.82365 19.6364C6.69537 24.8442 14.7283 25.5247 19.9361 21.653L21.3248 20.4712L20.844 23.0985L20.8324 23.1999C20.8153 23.5689 21.0732 23.9029 21.4467 23.9713C21.8541 24.0459 22.2449 23.776 22.3194 23.3686Z" />
        </mask>
        <path fill-rule="evenodd" clip-rule="evenodd"
            d="M22.834 7.69242C23.1509 7.49943 23.3576 6.95117 22.4173 5.77562C18.3636 0.70812 10.3117 0.312406 5.24419 4.36605L3.89817 5.59621L4.28571 2.95353L4.2937 2.85184C4.29768 2.48244 4.02814 2.15774 3.65246 2.10265C3.24263 2.04255 2.86168 2.32606 2.80158 2.73589L2.14511 7.2125C2.06498 7.75894 2.443 8.26687 2.98944 8.34701L7.95494 9.07517L8.05663 9.08316C8.42604 9.08714 8.75074 8.8176 8.80583 8.44192L8.81382 8.34024C8.8178 7.97083 8.54826 7.64613 8.17258 7.59104L4.53001 7.05634L4.97119 6.64746L6.21915 5.50489L6.45588 5.32123C10.8312 2.02802 17.7729 2.37097 21.2459 6.71261L21.4853 7.00363C22.1487 7.78449 22.4199 7.86155 22.6887 7.7614L22.7902 7.71656L22.834 7.69242ZM22.3194 23.3686L23.134 18.918C23.2334 18.3747 22.8736 17.8537 22.3303 17.7543L17.3937 16.8508L17.2924 16.8392C16.9233 16.8222 16.5893 17.0801 16.521 17.4536L16.5094 17.5549C16.4923 17.9239 16.7502 18.258 17.1237 18.3263L20.745 18.9896L20.2897 19.3826L19.002 20.4803L18.759 20.6555C14.2698 23.7917 7.34458 23.2033 4.02743 18.7414L3.79852 18.4421C3.16314 17.6382 2.89491 17.5516 2.62267 17.6422L2.51967 17.6834L2.47504 17.706C2.15148 17.8876 1.9255 18.4282 2.82365 19.6364C6.69537 24.8442 14.7283 25.5247 19.9361 21.653L21.3248 20.4712L20.844 23.0985L20.8324 23.1999C20.8153 23.5689 21.0732 23.9029 21.4467 23.9713C21.8541 24.0459 22.2449 23.776 22.3194 23.3686Z"
            fill="white" />
        <path
            d="M22.4173 5.77562L22.2611 5.90055L22.2611 5.90055L22.4173 5.77562ZM22.834 7.69242L22.9306 7.86775L22.938 7.86324L22.834 7.69242ZM5.24419 4.36605L5.11899 4.20954L5.10927 4.21842L5.24419 4.36605ZM3.89817 5.59621L3.70029 5.56719L3.61887 6.12242L4.0331 5.74384L3.89817 5.59621ZM4.28571 2.95353L4.48404 2.98261L4.48509 2.9692L4.28571 2.95353ZM4.2937 2.85184L4.49354 2.86755L4.49369 2.854L4.2937 2.85184ZM3.65246 2.10265L3.68148 1.90476L3.68148 1.90476L3.65246 2.10265ZM2.80158 2.73589L2.99946 2.76491L2.80158 2.73589ZM2.14511 7.2125L1.94723 7.18348L1.94723 7.18348L2.14511 7.2125ZM2.98944 8.34701L3.01846 8.14912L3.01846 8.14912L2.98944 8.34701ZM7.95494 9.07517L7.92586 9.2735L7.93928 9.27455L7.95494 9.07517ZM8.05663 9.08316L8.04093 9.283L8.05448 9.28315L8.05663 9.08316ZM8.80583 8.44192L9.00416 8.47101L9.00521 8.45759L8.80583 8.44192ZM8.81382 8.34024L9.01366 8.35594L9.01381 8.34239L8.81382 8.34024ZM8.17258 7.59104L8.14354 7.78892L8.14356 7.78892L8.17258 7.59104ZM4.53001 7.05634L4.39406 6.90964L4.08771 7.19355L4.50096 7.25421L4.53001 7.05634ZM4.97119 6.64746L4.83614 6.49995L4.83525 6.50077L4.97119 6.64746ZM6.21915 5.50489L6.09656 5.34687L6.09011 5.35187L6.0841 5.35738L6.21915 5.50489ZM6.45588 5.32123L6.3356 5.16142L6.33329 5.16321L6.45588 5.32123ZM21.2459 6.71261L21.0897 6.83756L21.0915 6.83966L21.2459 6.71261ZM21.4853 7.00363L21.3308 7.13069L21.3329 7.13312L21.4853 7.00363ZM22.6887 7.7614L22.7587 7.94915L22.7695 7.94434L22.6887 7.7614ZM22.7902 7.71656L22.871 7.8995L22.8791 7.89596L22.8867 7.89172L22.7902 7.71656ZM23.134 18.918L22.9372 18.882L22.9372 18.882L23.134 18.918ZM22.3194 23.3686L22.5162 23.4046L22.5162 23.4046L22.3194 23.3686ZM22.3303 17.7543L22.3663 17.5576L22.3663 17.5576L22.3303 17.7543ZM17.3937 16.8508L17.4298 16.6537L17.4164 16.6521L17.3937 16.8508ZM17.2924 16.8392L17.3152 16.6401L17.3016 16.6395L17.2924 16.8392ZM16.521 17.4536L16.3238 17.4175L16.3222 17.4308L16.521 17.4536ZM16.5094 17.5549L16.3102 17.5321L16.3096 17.5457L16.5094 17.5549ZM17.1237 18.3263L17.1597 18.1296L17.1597 18.1296L17.1237 18.3263ZM20.745 18.9896L20.8757 19.1411L21.1919 18.8682L20.7811 18.7929L20.745 18.9896ZM20.2897 19.3826L20.4194 19.5348L20.4203 19.5341L20.2897 19.3826ZM19.002 20.4803L19.119 20.6426L19.1256 20.6378L19.1318 20.6325L19.002 20.4803ZM18.759 20.6555L18.8735 20.8194L18.8759 20.8177L18.759 20.6555ZM4.02743 18.7414L4.18795 18.6221L4.18629 18.6199L4.02743 18.7414ZM3.79852 18.4421L3.9574 18.3206L3.95543 18.3181L3.79852 18.4421ZM2.62267 17.6422L2.55942 17.4521L2.54837 17.4565L2.62267 17.6422ZM2.51967 17.6834L2.44537 17.4977L2.43722 17.501L2.42939 17.505L2.51967 17.6834ZM2.47504 17.706L2.38468 17.5274L2.37713 17.5316L2.47504 17.706ZM2.82365 19.6364L2.66315 19.7557L2.66315 19.7557L2.82365 19.6364ZM19.9361 21.653L20.0557 21.8138L20.0657 21.8053L19.9361 21.653ZM21.3248 20.4712L21.5215 20.5072L21.6226 19.9552L21.1952 20.3189L21.3248 20.4712ZM20.844 23.0985L20.6468 23.0624L20.6452 23.0758L20.844 23.0985ZM20.8324 23.1999L20.6332 23.1771L20.6326 23.1906L20.8324 23.1999ZM21.4467 23.9713L21.4107 24.168L21.4107 24.168L21.4467 23.9713ZM22.2611 5.90055C22.7216 6.47617 22.8765 6.86937 22.8978 7.11946C22.9176 7.35174 22.8239 7.46444 22.73 7.5216L22.938 7.86324C23.1611 7.72742 23.3291 7.46949 23.2964 7.0855C23.2652 6.71933 23.0534 6.25062 22.5735 5.65069L22.2611 5.90055ZM5.36912 4.52223C10.3622 0.528157 18.2855 0.930638 22.2611 5.90055L22.5735 5.65069C18.4417 0.485602 10.2612 0.0966554 5.11926 4.20987L5.36912 4.52223ZM4.0331 5.74384L5.37912 4.51369L5.10927 4.21842L3.76325 5.44858L4.0331 5.74384ZM4.08782 2.92451L3.70029 5.56719L4.09606 5.62523L4.48359 2.98255L4.08782 2.92451ZM4.09431 2.83617L4.08632 2.93786L4.48509 2.9692L4.49308 2.86751L4.09431 2.83617ZM3.62344 2.30053C3.89878 2.34091 4.09663 2.57899 4.09371 2.84969L4.49369 2.854C4.49873 2.38588 4.1575 1.97457 3.68148 1.90476L3.62344 2.30053ZM2.99946 2.76491C3.04354 2.46437 3.3229 2.25646 3.62344 2.30053L3.68148 1.90476C3.16236 1.82864 2.67982 2.18775 2.6037 2.70687L2.99946 2.76491ZM2.343 7.24151L2.99946 2.76491L2.6037 2.70687L1.94723 7.18348L2.343 7.24151ZM3.01846 8.14912C2.58131 8.08502 2.27889 7.67867 2.343 7.24151L1.94723 7.18348C1.85107 7.83921 2.30469 8.44873 2.96042 8.54489L3.01846 8.14912ZM7.98396 8.87728L3.01846 8.14912L2.96042 8.54489L7.92593 9.27305L7.98396 8.87728ZM8.0723 8.88377L7.97061 8.87578L7.93928 9.27455L8.04096 9.28254L8.0723 8.88377ZM8.60794 8.4129C8.56757 8.68824 8.32949 8.88609 8.05879 8.88317L8.05448 9.28315C8.52259 9.28819 8.93391 8.94696 9.00371 8.47094L8.60794 8.4129ZM8.61443 8.32457L8.60644 8.42625L9.00521 8.45759L9.0132 8.35591L8.61443 8.32457ZM8.14356 7.78892C8.4189 7.8293 8.61675 8.06738 8.61383 8.33808L9.01381 8.34239C9.01885 7.87428 8.67762 7.46296 8.2016 7.39316L8.14356 7.78892ZM4.50096 7.25421L8.14354 7.78892L8.20163 7.39316L4.55905 6.85846L4.50096 7.25421ZM4.83525 6.50077L4.39406 6.90964L4.66595 7.20303L5.10714 6.79415L4.83525 6.50077ZM6.0841 5.35738L4.83614 6.49995L5.10625 6.79497L6.35421 5.65241L6.0841 5.35738ZM6.33329 5.16321L6.09656 5.34687L6.34175 5.66291L6.57848 5.47925L6.33329 5.16321ZM21.4021 6.58768C17.8512 2.1486 10.7834 1.81366 6.33561 5.16144L6.57616 5.48103C10.879 2.24239 17.6947 2.59334 21.0898 6.83754L21.4021 6.58768ZM21.6398 6.87658L21.4004 6.58557L21.0915 6.83966L21.3308 7.13067L21.6398 6.87658ZM22.6189 7.57398C22.5707 7.59195 22.5326 7.59831 22.495 7.59558C22.457 7.59282 22.4057 7.57973 22.3335 7.53885C22.1819 7.45301 21.9673 7.26206 21.6377 6.87413L21.3329 7.13312C21.6667 7.52606 21.9194 7.76407 22.1364 7.88694C22.2485 7.95041 22.3569 7.98661 22.4661 7.99453C22.5757 8.00249 22.6723 7.98092 22.7585 7.94882L22.6189 7.57398ZM22.7094 7.53362L22.6079 7.57846L22.7695 7.94434L22.871 7.8995L22.7094 7.53362ZM22.7375 7.51726L22.6937 7.5414L22.8867 7.89172L22.9305 7.86758L22.7375 7.51726ZM22.9372 18.882L22.1227 23.3326L22.5162 23.4046L23.3307 18.954L22.9372 18.882ZM22.2943 17.951C22.7289 18.0306 23.0168 18.4474 22.9372 18.882L23.3307 18.954C23.45 18.3021 23.0183 17.6769 22.3663 17.5576L22.2943 17.951ZM17.3577 17.0476L22.2943 17.951L22.3663 17.5576L17.4297 16.6541L17.3577 17.0476ZM17.2697 17.0379L17.371 17.0495L17.4164 16.6521L17.3151 16.6405L17.2697 17.0379ZM16.7177 17.4896C16.7678 17.2158 17.0127 17.0265 17.2831 17.039L17.3016 16.6395C16.834 16.6178 16.4108 16.9443 16.3242 17.4176L16.7177 17.4896ZM16.7081 17.5776L16.7197 17.4763L16.3222 17.4308L16.3107 17.5322L16.7081 17.5776ZM17.1597 18.1296C16.886 18.0795 16.6967 17.8346 16.7092 17.5641L16.3096 17.5457C16.288 18.0133 16.6144 18.4364 17.0877 18.5231L17.1597 18.1296ZM20.7811 18.7929L17.1597 18.1296L17.0876 18.523L20.709 19.1864L20.7811 18.7929ZM20.4203 19.5341L20.8757 19.1411L20.6144 18.8382L20.159 19.2312L20.4203 19.5341ZM19.1318 20.6325L20.4194 19.5348L20.1599 19.2304L18.8723 20.3281L19.1318 20.6325ZM18.8759 20.8177L19.119 20.6426L18.8851 20.3181L18.642 20.4932L18.8759 20.8177ZM3.86693 18.8607C7.25852 23.4227 14.31 24.0077 18.8735 20.8194L18.6444 20.4915C14.2296 23.5758 7.43063 22.9838 4.18793 18.6221L3.86693 18.8607ZM3.63966 18.5636L3.86857 18.8629L4.18629 18.6199L3.95738 18.3206L3.63966 18.5636ZM2.68581 17.832C2.73466 17.8157 2.77292 17.8107 2.81037 17.8148C2.84825 17.8189 2.89907 17.8338 2.96979 17.8772C3.11828 17.9683 3.32596 18.1668 3.64162 18.5661L3.95543 18.3181C3.6357 17.9136 3.39158 17.6668 3.17905 17.5363C3.06926 17.4689 2.96226 17.4289 2.85343 17.4171C2.74416 17.4053 2.6468 17.4234 2.55953 17.4524L2.68581 17.832ZM2.59396 17.8691L2.69697 17.8279L2.54837 17.4565L2.44537 17.4977L2.59396 17.8691ZM2.56531 17.8845L2.60994 17.8619L2.42939 17.505L2.38476 17.5275L2.56531 17.8845ZM2.98416 19.517C2.54436 18.9255 2.4034 18.527 2.39096 18.2763C2.3794 18.0435 2.4771 17.9342 2.57294 17.8804L2.37713 17.5316C2.14941 17.6594 1.97234 17.9113 1.99145 18.2962C2.00966 18.6632 2.20478 19.1391 2.66315 19.7557L2.98416 19.517ZM19.8167 21.4924C14.6855 25.3073 6.78132 24.6246 2.98416 19.517L2.66315 19.7557C6.60943 25.0638 14.771 25.7421 20.0554 21.8135L19.8167 21.4924ZM21.1952 20.3189L19.8065 21.5006L20.0657 21.8053L21.4544 20.6235L21.1952 20.3189ZM21.0407 23.1345L21.5215 20.5072L21.1281 20.4352L20.6472 23.0625L21.0407 23.1345ZM21.0311 23.2226L21.0427 23.1212L20.6452 23.0758L20.6337 23.1771L21.0311 23.2226ZM21.4827 23.7746C21.209 23.7245 21.0197 23.4795 21.0322 23.2091L20.6326 23.1906C20.611 23.6583 20.9374 24.0814 21.4107 24.168L21.4827 23.7746ZM22.1227 23.3326C22.068 23.6313 21.7815 23.8292 21.4827 23.7746L21.4107 24.168C21.9268 24.2625 22.4217 23.9207 22.5162 23.4046L22.1227 23.3326Z"
            fill="black" fill-opacity="0.2" mask="url(#path-1-outside-1_0_2133)" />
    </g>
    <defs>
        <filter id="filter0_d_0_2133" x="0.934326" y="0.417053" width="23.4161" height="24.9073"
            filterUnits="userSpaceOnUse" color-interpolation-filters="sRGB">
            <feFlood flood-opacity="0" result="BackgroundImageFix" />
            <feColorMatrix in="SourceAlpha" type="matrix"
                values="0 0 0 0 0 0 0 0 0 0 0 0 0 0 0 0 0 0 127 0" result="hardAlpha" />
            <feOffset />
            <feGaussianBlur stdDeviation="0.5" />
            <feColorMatrix type="matrix"
                values="0 0 0 0 0.14902 0 0 0 0 0.14902 0 0 0 0 0.14902 0 0 0 0.4 0" />
            <feBlend mode="normal" in2="BackgroundImageFix" result="effect1_dropShadow_0_2133" />
            <feBlend mode="normal" in="SourceGraphic" in2="effect1_dropShadow_0_2133"
                result="shape" />
        </filter>
    </defs>
</svg>
