<svg width="22" height="22" viewBox="0 0 22 22" fill="none" xmlns="http://www.w3.org/2000/svg">
    <path
        d="M9.201 2.79945L11 1L12.799 2.79945C13.0972 3.09721 13.5015 3.26442 13.923 3.26431H19.182C19.6642 3.26431 20.1266 3.45579 20.4675 3.79663C20.8085 4.13746 21 4.59974 21 5.08175V19.1815C21 19.6635 20.8085 20.1257 20.4675 20.4666C20.1266 20.8074 19.6642 20.9989 19.182 20.9989H2.818C2.33584 20.9989 1.87342 20.8074 1.53248 20.4666C1.19154 20.1257 1 19.6635 1 19.1815V5.08175C1 4.59974 1.19154 4.13746 1.53248 3.79663C1.87342 3.45579 2.33584 3.26431 2.818 3.26431H8.078C8.49914 3.26415 8.90302 3.09697 9.201 2.79945V2.79945Z"
        stroke="black" stroke-linecap="round" stroke-linejoin="round" />
    <path
        d="M17.5979 20.9991V20.3973C17.5979 19.3504 17.182 18.3464 16.4416 17.6061C15.7013 16.8658 14.6971 16.4497 13.6499 16.4495H8.4949C7.44756 16.4495 6.44311 16.8654 5.70253 17.6057C4.96195 18.3461 4.5459 19.3502 4.5459 20.3973V21.0001"
        stroke="black" stroke-linecap="round" stroke-linejoin="round" />
    <path
        d="M11.0721 13.6301C13.036 13.6301 14.6281 12.0385 14.6281 10.0752C14.6281 8.11185 13.036 6.52026 11.0721 6.52026C9.10819 6.52026 7.51611 8.11185 7.51611 10.0752C7.51611 12.0385 9.10819 13.6301 11.0721 13.6301Z"
        stroke="black" stroke-linecap="round" stroke-linejoin="round" />
</svg>
