<svg width="25" height="32" viewBox="0 0 25 32" fill="none" xmlns="http://www.w3.org/2000/svg">
    <path
        d="M21.9 12.8H20.35V8C20.35 3.52 16.94 0 12.6 0C8.25997 0 4.84996 3.52 4.84996 8V12.8H3.29996C1.59495 12.8 0.199951 14.24 0.199951 16V28.8C0.199951 30.56 1.59495 32 3.29996 32H21.9C23.605 32 25 30.56 25 28.8V16C25 14.24 23.605 12.8 21.9 12.8ZM7.94997 8C7.94997 5.28 9.96497 3.2 12.6 3.2C15.235 3.2 17.25 5.28 17.25 8V12.8H7.94997V8ZM3.29996 28.8V16H21.9V28.8H3.29996Z"
        fill="black" />
</svg>
