<svg width="20" height="20" viewBox="0 0 20 20" fill="none" xmlns="http://www.w3.org/2000/svg">
    <rect x="1" y="1" width="18" height="18" rx="3" stroke="black" stroke-width="2" />
    <path
        d="M14.375 4H5.625C5.28125 4 5 4.25681 5 4.57422V15.695C5 16.0124 5.20313 16.0932 5.45625 15.871L9.74687 12.114C9.84687 12.0275 10.0125 12.0275 10.1125 12.1112L14.5406 15.8796C14.7938 16.096 15 16.0124 15 15.695V4.57422C15 4.25681 14.7219 4 14.375 4ZM14.0625 14.2984L10.7469 11.4764C10.5156 11.2801 10.225 11.182 9.93125 11.182C9.63125 11.182 9.33438 11.283 9.10313 11.485L5.9375 14.258V4.86565H14.0625V14.2984Z"
        fill="black" stroke="black" />
</svg>
