<svg width="30" height="29" viewBox="0 0 30 29" fill="none" xmlns="http://www.w3.org/2000/svg">
    <path
        d="M18.6175 8.30835H1.05924C0.487047 8.30835 0.0231934 9.02521 0.0231934 9.90951V10.0781C0.0231934 10.9623 0.487047 11.6792 1.05924 11.6792H18.6175C19.1897 11.6792 19.6535 10.9623 19.6535 10.0781V9.90951C19.6535 9.02521 19.1897 8.30835 18.6175 8.30835Z"
        fill="white" />
    <path
        d="M28.4167 16.6667H1.58333C0.708883 16.6667 0 17.3756 0 18.2501V18.4167C0 19.2912 0.708883 20.0001 1.58333 20.0001H28.4167C29.2911 20.0001 30 19.2912 30 18.4167V18.2501C30 17.3756 29.2911 16.6667 28.4167 16.6667Z"
        fill="white" />
    <path
        d="M28.4167 16.6667H1.58333C0.708883 16.6667 0 17.3756 0 18.2501V18.4167C0 19.2912 0.708883 20.0001 1.58333 20.0001H28.4167C29.2911 20.0001 30 19.2912 30 18.4167V18.2501C30 17.3756 29.2911 16.6667 28.4167 16.6667Z"
        fill="white" />
    <path
        d="M18.6419 25.0305H1.49747C0.93876 25.0305 0.48584 25.7333 0.48584 26.6003V26.7655C0.48584 27.6325 0.93876 28.3353 1.49747 28.3353H18.6419C19.2006 28.3353 19.6535 27.6325 19.6535 26.7655V26.6003C19.6535 25.7333 19.2006 25.0305 18.6419 25.0305Z"
        fill="white" />
    <path
        d="M28.4167 0H1.58333C0.708883 0 0 0.708882 0 1.58333V1.75C0 2.62445 0.708883 3.33333 1.58333 3.33333H28.4167C29.2911 3.33333 30 2.62445 30 1.75V1.58333C30 0.708882 29.2911 0 28.4167 0Z"
        fill="white" />
</svg>
