<svg width="14" height="14" viewBox="0 0 14 14" fill="none" xmlns="http://www.w3.org/2000/svg">
    <path
        d="M5.66659 12.3333H1.66659V8.33325C1.66659 8.15644 1.59635 7.98687 1.47132 7.86185C1.3463 7.73682 1.17673 7.66659 0.999919 7.66659C0.823108 7.66659 0.653538 7.73682 0.528514 7.86185C0.40349 7.98687 0.333252 8.15644 0.333252 8.33325V12.9999C0.333252 13.1767 0.40349 13.3463 0.528514 13.4713C0.653538 13.5963 0.823108 13.6666 0.999919 13.6666H5.66659C5.8434 13.6666 6.01297 13.5963 6.13799 13.4713C6.26301 13.3463 6.33325 13.1767 6.33325 12.9999C6.33325 12.8231 6.26301 12.6535 6.13799 12.5285C6.01297 12.4035 5.8434 12.3333 5.66659 12.3333ZM12.9993 0.333252H8.33325C8.15644 0.333252 7.98687 0.40349 7.86185 0.528514C7.73682 0.653538 7.66659 0.823108 7.66659 0.999919C7.66659 1.17673 7.73682 1.3463 7.86185 1.47132C7.98687 1.59635 8.15644 1.66659 8.33325 1.66659H12.3326V5.66659C12.3326 5.8434 12.4028 6.01297 12.5278 6.13799C12.6529 6.26301 12.8224 6.33325 12.9993 6.33325C13.1761 6.33325 13.3456 6.26301 13.4707 6.13799C13.5957 6.01297 13.6659 5.8434 13.6659 5.66659V0.999919C13.6659 0.823108 13.5957 0.653538 13.4707 0.528514C13.3456 0.40349 13.1761 0.333252 12.9993 0.333252V0.333252Z"
        fill="white" />
</svg>
