<svg width="11" height="23" viewBox="0 0 11 23" fill="none" xmlns="http://www.w3.org/2000/svg">
    <path
        d="M5.80675 0L5.9318 0.0067403C6.44118 0.0662135 6.81623 0.498666 6.81593 0.999348L6.80908 1.11596L5.932 8.62496L10.2554 10.5711C10.7146 10.7995 10.9212 11.3334 10.7514 11.8044L10.7055 11.9118L5.88994 21.5945C5.70211 21.9721 5.29752 22.1913 4.87858 22.1424C4.3692 22.0829 3.99416 21.6505 3.99446 21.1498L4.00131 21.0332L4.878 13.525L0.554953 11.5792C0.0957612 11.3509 -0.110806 10.817 0.0589196 10.346L0.104823 10.2385L4.92043 0.554726C5.08947 0.214815 5.4341 0.00325346 5.80675 0Z"
        fill="white" />
</svg>
