<svg width="22" height="22" viewBox="0 0 22 22" fill="none" xmlns="http://www.w3.org/2000/svg">
    <path
        d="M11 19.635C15.769 19.635 19.635 15.769 19.635 11C19.635 6.23101 15.769 2.36499 11 2.36499C6.23101 2.36499 2.36499 6.23101 2.36499 11C2.36499 15.769 6.23101 19.635 11 19.635Z"
        stroke="black" stroke-width="2" stroke-linecap="round" stroke-linejoin="round" />
    <path
        d="M13.232 2.656C13.0604 2.60803 12.9009 2.52447 12.7637 2.41075C12.6266 2.29704 12.5149 2.15572 12.436 1.996L11.93 1H10.07L9.565 1.996C9.48608 2.15572 9.37442 2.29704 9.23727 2.41075C9.10013 2.52447 8.94058 2.60803 8.769 2.656M8.768 19.344C8.93958 19.392 9.09913 19.4755 9.23627 19.5892C9.37342 19.703 9.48508 19.8443 9.564 20.004L10.069 21H11.931L12.436 20.004C12.5149 19.8443 12.6266 19.703 12.7637 19.5892C12.9009 19.4755 13.0604 19.392 13.232 19.344M2.656 8.768C2.60803 8.93958 2.52447 9.09913 2.41075 9.23627C2.29704 9.37342 2.15572 9.48508 1.996 9.564L1 10.07V11.932L1.996 12.437C2.15572 12.5159 2.29704 12.6276 2.41075 12.7647C2.52447 12.9019 2.60803 13.0614 2.656 13.233M19.344 13.232C19.392 13.0604 19.4755 12.9009 19.5892 12.7637C19.703 12.6266 19.8443 12.5149 20.004 12.436L21 11.93V10.07L20.004 9.565C19.8443 9.48608 19.703 9.37442 19.5892 9.23727C19.4755 9.10013 19.392 8.94058 19.344 8.769M6.678 3.522C6.52269 3.60944 6.35069 3.66318 6.17323 3.67972C5.99576 3.69626 5.8168 3.67523 5.648 3.618L4.588 3.27L3.27 4.587L3.618 5.649C3.67523 5.8178 3.69626 5.99676 3.67972 6.17423C3.66318 6.35169 3.60944 6.52369 3.522 6.679M15.322 18.478C15.4773 18.3906 15.6493 18.3368 15.8268 18.3203C16.0042 18.3037 16.1832 18.3248 16.352 18.382L17.412 18.73L18.73 17.413L18.382 16.351C18.3248 16.1822 18.3037 16.0032 18.3203 15.8258C18.3368 15.6483 18.3906 15.4763 18.478 15.321M3.522 15.322C3.60944 15.4773 3.66318 15.6493 3.67972 15.8268C3.69626 16.0042 3.67523 16.1832 3.618 16.352L3.27 17.412L4.587 18.73L5.649 18.382C5.8178 18.3248 5.99676 18.3037 6.17423 18.3203C6.35169 18.3368 6.52369 18.3906 6.679 18.478M18.478 6.678C18.3906 6.52269 18.3368 6.35069 18.3203 6.17323C18.3037 5.99576 18.3248 5.8168 18.382 5.648L18.73 4.588L17.413 3.27L16.351 3.618C16.1822 3.67523 16.0032 3.69626 15.8258 3.67972C15.6483 3.66318 15.4763 3.60944 15.321 3.522"
        stroke="black" stroke-width="2" stroke-linejoin="round" />
</svg>
